<svg xmlns="http://www.w3.org/2000/svg" height="24" viewBox="0 -960 960 960" width="24"><path d="M460-174.616q-43.076 0-74.038-29.038-30.961-29.039-34.423-70.961h60.768q3.077 17.385 16.308 28.692 13.231 11.308 31.385 11.308 20.846 0 35.424-14.577 14.577-14.577 14.577-35.424 0-20.846-14.577-35.423-14.578-14.577-35.424-14.577H90v-59.999h370q45.769 0 77.884 32.115t32.115 77.884q0 45.769-32.115 77.884-32.115 32.116-77.884 32.116ZM90-565.385v-59.999h530q29.846 0 49.924-20.077 20.077-20.077 20.077-49.923 0-29.847-20.077-49.924-20.078-20.077-49.924-20.077-27.539 0-46.462 17-18.923 17-22 43H490.77q3.462-51.307 40.308-85.653 36.846-34.346 88.922-34.346 54.769 0 92.384 37.616 37.615 37.615 37.615 92.384T712.384-603Q674.769-565.385 620-565.385H90ZM750.002-250.77v-60.768q26-3.077 43-22 17-18.923 17-46.462 0-29.846-20.077-49.924-20.078-20.077-49.924-20.077H90v-59.998h650q54.769 0 92.384 37.615T869.999-380q0 52.076-34.345 88.922-34.346 36.846-85.653 40.308Z"/></svg>