<svg xmlns="http://www.w3.org/2000/svg" height="24" viewBox="0 -960 960 960" width="24"><path d="M260-180.001q-83.538 0-141.768-58.231-58.23-58.23-58.23-141.768 0-72.23 47.153-128.846 47.154-56.615 119.769-67.46 19.615-90.385 90.538-147.039Q388.385-779.999 480-779.999q109.769 0 184.884 76.154Q739.999-627.692 739.999-520v20.001h12.308q66.538 4.923 107.115 52.384T899.999-341q0 66.922-46.538 113.961Q806.922-180.001 740-180.001H260ZM260-240h480q42 0 71-29t29-71q0-42-29-71t-71-29h-60v-80q0-83-58.5-141.5T480-720q-66.462 0-118.731 39.693-52.27 39.692-70.654 102.539 70.307 11.462 119.845 65.807Q459.999-457.615 459.999-380H400q0-58-41-99t-99-41q-58 0-99 41t-41 99q0 58 41 99t99 41Z"/></svg>