<svg xmlns="http://www.w3.org/2000/svg" height="24" viewBox="0 -960 960 960" width="24"><path d="M572.262-257.694q20.814 0 35.429-14.57 14.615-14.569 14.615-35.384 0-20.814-14.57-35.429-14.569-14.615-35.384-14.615-20.814 0-35.429 14.57-14.615 14.57-14.615 35.384t14.57 35.429q14.57 14.615 35.384 14.615ZM378-256.232 623.768-502 582-544.153 335.847-298 378-256.232Zm9.648-186.076q20.814 0 35.429-14.57 14.615-14.57 14.615-35.384t-14.57-35.429q-14.57-14.615-35.384-14.615t-35.429 14.57q-14.615 14.569-14.615 35.384 0 20.814 14.57 35.429 14.569 14.615 35.384 14.615Zm92.281 342.307q-128.467 0-214.197-88.268Q180.001-276.537 180.001-408q0-93.076 74.5-204.037Q329.001-722.999 480-853.844q150.999 130.845 225.499 241.807 74.5 110.961 74.5 204.037 0 131.463-85.801 219.731-85.802 88.268-214.269 88.268ZM480-160q104 0 172-70.5T720-408q0-73-60.5-165T480-774Q361-665 300.5-573T240-408q0 107 68 177.5T480-160Zm0-316.923Z"/></svg>