<svg xmlns="http://www.w3.org/2000/svg" height="24" viewBox="0 -960 960 960" width="24"><path d="M133.847-760v-59.999h114.231V-760H133.847Zm108.845 211.077-42.768-41.768 80.769-80.769 42.768 41.768-80.769 80.769ZM480-639.615q-75.307 0-128.037-52.731-52.731-52.73-52.731-128.037h59.999q0 50.384 35.192 85.577 35.192 35.192 85.577 35.192t85.577-35.192q35.192-35.193 35.192-85.577h59.999q0 75.307-52.731 128.037-52.73 52.731-128.037 52.731Zm0-180.768Zm-29.999 344.229v-114.23h59.998v114.23h-59.998Zm268.076-72.385-80.538-81.153 41.768-41.768 81.538 80.153-42.768 42.768ZM711.922-760v-59.999h114.231V-760H711.922ZM90.001-135.386v-60.768q34.538-1.923 52.461-20.192 17.923-18.269 71.538-18.269 54.769 0 74.423 20 19.654 20 57.962 20 39.538 0 59.192-20 19.654-20 74.423-20 53.538 0 74.423 20 20.884 20 59.192 20 39.539 0 58.578-20 19.038-20 73.807-20 53.615 0 71.538 18.269 17.923 18.269 52.461 20.192v60.768q-46.614-2.308-67.499-20.769-20.885-18.461-56.5-18.461-37.923 0-57.769 20-19.847 20-74.616 20-53.538 0-74.422-20-20.885-20-59.193-20-39.539 0-59.193 20-19.653 20-74.422 20t-74-20q-19.231-20-58.385-20-37.231 0-56.308 18.461-19.077 18.461-67.691 20.769Zm0-155.384v-60.768q34.538-1.923 52.461-20.192 17.923-18.269 71.538-18.269 53.538 0 73.807 20 20.27 20 58.578 20 39.538 0 59.192-20 19.654-20 74.423-20 53.538 0 74.115 20 20.577 20 58.27 20 39.538 0 59.192-20 19.654-20 74.423-20 52.384 0 71.538 18.269 19.154 18.269 52.461 20.192v60.768q-47.845-2.308-68.114-20.769-20.27-18.462-55.885-18.462-37.923 0-57.769 20-19.847 20-74.616 20-53.538 0-74.422-20-20.885-20-59.193-20-39.539 0-58.577 20-19.039 20-73.808 20-54.769 0-75.23-20-20.462-20-58.385-20-36 0-56.308 18.462-20.307 18.461-67.691 20.769Z"/></svg>