<svg xmlns="http://www.w3.org/2000/svg" height="24" viewBox="0 -960 960 960" width="24"><path d="m726.307-562.154-42.153-43.384 77.538-76.307 42.153 42.153-77.538 77.538ZM90.001-170.001v-59.998h779.998v59.998H90.001Zm360-505.383v-107.692h59.998v107.692h-59.998ZM233.693-563.385l-76.307-77.538 42.153-42.153 77.537 77.538-43.383 42.153ZM297-400h366q-23-54-72.192-87Q541.615-520 480-520q-61.615 0-110.808 33Q320-454 297-400Zm-74.691 59.999Q229.233-442 303.232-510.999q74-69 176.768-69t176.768 69Q730.767-442 737.691-340.001H222.309ZM480-400Z"/></svg>